HIERARCHY
ROOT root     
{
	OFFSET 0.0000 0.0000 0.0000
	CHANNELS 6 Xposition Yposition Zposition Zrotation Yrotation Xrotation
	JOINT pelvis   
	{
		OFFSET 0.0000 0.0000 0.0000
		CHANNELS 3 Zrotation Yrotation Xrotation
		JOINT thorax   
		{
			OFFSET 0.0000 23.0750 -5.0000
			CHANNELS 3 Zrotation Yrotation Xrotation
			JOINT rclavicle
			{
				OFFSET 0.0000 28.0009 0.0000
				CHANNELS 3 Zrotation Yrotation Xrotation
				JOINT rhumerus 
				{
					OFFSET -18.5725 5.5939 0.0000
					CHANNELS 3 Zrotation Yrotation Xrotation
					JOINT rradius  
					{
						OFFSET -24.8459 0.0000 0.0000
						CHANNELS 3 Zrotation Yrotation Xrotation
						JOINT rhand    
						{
							OFFSET -24.5477 0.0000 0.0000
							CHANNELS 3 Zrotation Yrotation Xrotation
							End Site
							{
								OFFSET -8.1826 0.0000 0.0000
							}
						}
					}
				}
			}
			JOINT lclavicle
			{
				OFFSET 0.0000 28.0009 0.0000
				CHANNELS 3 Zrotation Yrotation Xrotation
				JOINT lhumerus 
				{
					OFFSET 18.5725 5.5939 0.0000
					CHANNELS 3 Zrotation Yrotation Xrotation
					JOINT lradius  
					{
						OFFSET 24.8459 0.0000 0.0000
						CHANNELS 3 Zrotation Yrotation Xrotation
						JOINT lhand    
						{
							OFFSET 24.5477 0.0000 0.0000
							CHANNELS 3 Zrotation Yrotation Xrotation
							End Site
							{
								OFFSET 8.1826 0.0000 0.0000
							}
						}
					}
				}
			}
			JOINT head     
			{
				OFFSET 0.0000 35.2030 0.0000
				CHANNELS 3 Zrotation Yrotation Xrotation
				End Site
				{
					OFFSET 0.0000 11.7343 0.0000
				}
			}
		}
		JOINT rfemur   
		{
			OFFSET -8.2817 0.0000 0.0000
			CHANNELS 3 Zrotation Yrotation Xrotation
			JOINT rtibia   
			{
				OFFSET 0.0000 -43.3627 0.0000
				CHANNELS 3 Zrotation Yrotation Xrotation
				JOINT rfoot    
				{
					OFFSET 0.0000 -38.2947 0.0000
					CHANNELS 3 Zrotation Yrotation Xrotation
					JOINT rtoes    
					{
						OFFSET 0.0000 0.0000 16.6054
						CHANNELS 3 Zrotation Yrotation Xrotation
						End Site
						{
							OFFSET 0.0000 0.0000 5.5351
						}
					}
				}
			}
		}
		JOINT lfemur   
		{
			OFFSET 8.2817 0.0000 0.0000
			CHANNELS 3 Zrotation Yrotation Xrotation
			JOINT ltibia   
			{
				OFFSET 0.0000 -43.3627 0.0000
				CHANNELS 3 Zrotation Yrotation Xrotation
				JOINT lfoot    
				{
					OFFSET 0.0000 -38.2947 0.0000
					CHANNELS 3 Zrotation Yrotation Xrotation
					JOINT ltoes    
					{
						OFFSET 0.0000 0.0000 16.6054
						CHANNELS 3 Zrotation Yrotation Xrotation
						End Site
						{
							OFFSET 0.0000 0.0000 5.5351
						}
					}
				}
			}
		}
	}
}
MOTION
Frames: 12
Frame Time: .0333333
25.317 82.55 10.185 -175.899 -74.6343 -149.677 0 -0 0 10.1394 -28.3103 5.27789 19.9479 -17.5995 7.06812e-05 51.3154 6.74039 29.5095 180 62.2849 180 -15.4828 8.84918 -1.20527 17.9865 17.6815 3.90555e-05 37.7912 -48.6591 -135.56 1.44933e-08 -2.74805 -6.0424e-07 23.5314 -4.9067 -1.02262 5.36881 9.382 -24.0668 3.40351 -13.966 -58.2939 -0 -0 32.7901 1.08195e-05 5.54994 10.7163 1.0351 4.61334e-06 -70.8208 -26.0382 29.1536 -63.3566 -0 -0 42.4044 3.31111e-06 10.3634 -6.07112 -1.10798 2.98511e-07 -38.5691 
25.326 82.564 10.29 -176.366 -74.2012 -149.202 0 -0 0 10.0066 -28.1306 5.56324 19.9476 -17.6879 -2.18614e-05 51.4987 6.24297 29.2264 -180 62.2341 -180 -15.4681 8.82848 -1.20134 17.3503 18.1578 3.67346e-05 39.4212 -48.0412 -136.351 0 -1.69132 0 22.1118 -6.45487 -1.26255 5.10443 9.08723 -24.0311 3.32405 -14.0071 -58.3856 -0 -0 32.6442 3.23817e-06 5.99054 10.8382 1.13038 -3.37953e-06 -70.9323 -26.2825 29.205 -63.3422 -0 -0 42.3177 6.00487e-06 10.5948 -6.06348 -1.13189 -1.61712e-06 -38.4602 
25.34 82.575 10.389 -176.903 -73.8007 -148.687 0 -0 0 9.82055 -27.9134 5.87511 19.9789 -17.7488 6.11639e-05 51.6922 5.68624 28.9079 180 62.1787 180 -15.4743 8.80176 -1.19821 16.5391 18.393 0.000119931 41.441 -47.0263 -136.094 4.88906e-10 -0.0927997 -6.03714e-07 20.1985 -8.179 -1.45915 4.90688 8.74705 -23.8613 3.23252 -14.0787 -58.4699 -0 -0 32.538 -7.08301e-06 6.42118 10.9364 1.22321 7.32114e-06 -71.0372 -26.4904 29.2174 -63.2789 -0 -0 42.2318 8.6118e-06 10.8497 -6.04608 -1.15649 8.34456e-06 -38.344 
25.36 82.58 10.481 -177.474 -73.4294 -148.163 0 -0 0 9.60456 -27.6785 6.20518 20.031 -17.7925 -6.42068e-06 51.8969 5.10961 28.5757 180 62.1288 180 -15.4957 8.77372 -1.19602 15.6364 18.3994 -7.83529e-06 41.5378 -47.1386 -132.942 0 -2.14527 0 17.9388 -8.09857 -1.28029 4.77032 8.37701 -23.56 3.1327 -14.1723 -58.5516 -0 -0 32.4724 -5.45493e-06 6.83039 11.0139 1.31089 -1.29912e-06 -71.1268 -26.6613 29.1876 -63.1816 -0 -0 42.1509 4.44318e-06 11.1247 -6.02351 -1.18212 -1.1312e-05 -38.2125 
25.388 82.579 10.568 -178.058 -73.0948 -147.636 0 -0 0 9.38392 -27.4437 6.54639 20.0897 -17.8319 7.97264e-05 52.1043 4.5561 28.2536 -180 62.0924 -180 -15.5276 8.74834 -1.19501 14.7608 18.2038 -3.30074e-05 40.676 -47.3452 -127.574 0 -5.24162 0 15.7261 -7.4533 -1.03079 4.6871 7.99363 -23.1387 3.02819 -14.2783 -58.6389 -0 -0 32.4418 -4.1708e-07 7.20723 11.0733 1.39129 4.7379e-06 -71.2023 -26.7961 29.1181 -63.0638 -0 -0 42.08 1.07522e-05 11.4145 -6.00096 -1.20919 4.26716e-06 -38.0555 
25.424 82.573 10.65 -178.626 -72.8021 -147.127 0 -0 0 9.18498 -27.2274 6.88903 20.1426 -17.8711 2.2898e-05 52.3159 4.05569 27.9644 180 62.0819 180 -15.5621 8.73123 -1.19534 13.9862 17.8211 -0.000109658 38.6494 -47.4245 -120.248 0 -9.2545 0 13.8642 -6.43199 -0.782783 4.64542 7.61402 -22.6153 2.92236 -14.3857 -58.7368 -0 -0 32.4418 2.7481e-06 7.54261 11.1177 1.46246 -1.68175e-05 -71.2581 -26.899 29.0099 -62.9437 -0 -0 42.0232 -2.52706e-05 11.7121 -5.98356 -1.23805 -1.31966e-05 -37.8733 
25.466 82.561 10.728 -179.16 -72.5405 -146.644 0 -0 0 9.01991 -27.0387 7.22336 20.1882 -17.9137 -2.56704e-05 52.5093 3.62794 27.7155 -180 62.0924 -180 -15.5922 8.72284 -1.19652 13.3259 17.2798 -0.000100805 35.5835 -47.1452 -111.936 0 -13.9713 0 12.4854 -5.29407 -0.579486 4.64316 7.24977 -22.0075 2.81577 -14.4852 -58.8477 -0 -0 32.4668 -8.25642e-06 7.83078 11.1505 1.52343 -3.09861e-05 -71.2945 -26.9784 28.8715 -62.8353 -0 -0 41.9815 -4.745e-06 12.0062 -5.97441 -1.26817 -8.90835e-06 -37.6665 
25.514 82.545 10.801 -179.655 -72.3173 -146.183 0 -0 0 8.89863 -26.8842 7.5394 20.2318 -17.9526 -4.99166e-05 52.6692 3.27407 27.5064 180 62.12 180 -15.6118 8.72437 -1.19832 12.7281 16.6295 0.000171579 31.9379 -46.3883 -103.679 1.05955e-07 -19.0932 -6.30014e-07 11.5849 -4.20484 -0.426717 4.67906 6.90764 -21.3382 2.71157 -14.5712 -58.975 -0 -0 32.5112 3.01163e-06 8.06901 11.1756 1.57394 2.20027e-05 -71.313 -27.0447 28.7122 -62.7506 -0 -0 41.9531 2.58969e-06 12.2878 -5.97517 -1.2989 1.1338e-05 -37.4422 
25.565 82.525 10.871 179.908 -72.1241 -145.757 0 -0 0 8.82222 -26.7606 7.83229 20.281 -17.987 -7.73277e-05 52.7707 2.99366 27.3323 180 62.1565 180 -15.6167 8.73333 -1.19991 12.1631 15.9348 9.06807e-05 28.1082 -45.2168 -96.1171 0 -24.4324 0 11.0838 -3.18564 -0.309201 4.75483 6.59063 -20.6352 2.61013 -14.6371 -59.1223 -0 -0 32.5685 -3.32553e-07 8.25709 11.1952 1.61392 9.19712e-07 -71.3158 -27.1069 28.5419 -62.7001 -0 -0 41.939 -1.3214e-05 12.5464 -5.98704 -1.32966 3.8065e-06 -37.2105 
25.618 82.502 10.937 179.528 -71.9629 -145.358 0 -0 0 8.79343 -26.6637 8.09875 20.341 -18.0122 -4.26383e-05 52.8081 2.77865 27.1856 -180 62.1921 -180 -15.6046 8.74834 -1.201 11.6217 15.2433 -8.92602e-05 24.2849 -43.7485 -89.4395 0 -29.9135 0 10.9004 -2.1778 -0.207801 4.8685 6.30019 -19.9246 2.51358 -14.6803 -59.2886 -0 -0 32.634 -3.78921e-06 8.39749 11.211 1.64397 -1.12338e-05 -71.3037 -27.1748 28.3693 -62.6939 -0 -0 41.939 -1.26387e-05 12.774 -6.01089 -1.35994 1.36288e-05 -36.9786 
25.671 82.477 11.001 179.21 -71.8263 -144.992 0 -0 0 8.8111 -26.5909 8.33931 20.4132 -18.0296 9.82407e-05 52.7733 2.62098 27.0612 180 62.2148 180 -15.5783 8.76535 -1.20132 11.0941 14.5908 9.12173e-05 20.5689 -42.0991 -83.6656 0 -35.474 0 10.9488 -1.14139 -0.1094 5.01757 6.03647 -19.2349 2.42352 -14.7013 -59.4775 -0 -0 32.7079 -1.12539e-06 8.49485 11.2236 1.66516 -1.97626e-05 -71.2798 -27.2534 28.2024 -62.7341 -0 -0 41.9531 -2.22715e-05 12.9636 -6.04663 -1.389 -2.86811e-06 -36.7565 
25.723 82.448 11.061 178.947 -71.7168 -144.651 0 -0 0 8.87278 -26.5327 8.55312 20.4958 -18.032 6.51959e-06 52.6737 2.49785 26.9475 180 62.2236 180 -15.5367 8.78381 -1.20059 10.5861 13.9629 -3.02999e-05 16.939 -40.3255 -78.6459 0 -41.1033 0 11.16 -0.0414005 -0.00400006 5.19801 5.79714 -18.5904 2.34236 -14.7041 -59.6868 -0 -0 32.7901 -7.8656e-06 8.55558 11.2313 1.67838 -3.08102e-05 -71.2479 -27.3485 28.0453 -62.8247 -0 -0 41.9862 -1.82564e-05 13.1117 -6.09422 -1.41644 1.8268e-05 -36.5505 
